<?xml version="1.0" encoding="utf-8"?>
<!-- Generator: Adobe Illustrator 21.1.0, SVG Export Plug-In . SVG Version: 6.00 Build 0)  -->
<svg version="1.1" id="Layer_1" xmlns="http://www.w3.org/2000/svg" xmlns:xlink="http://www.w3.org/1999/xlink" x="0px" y="0px"
	 viewBox="0 0 79 100" style="enable-background:new 0 0 79 100;" xml:space="preserve">
<style type="text/css">
	.st0{fill:#0A7C89;}
</style>
<title>Artboard 1ftps-zoom-icon</title>
<path class="st0" d="M77,81.7L65.5,62c-0.6-1-1.2-1.8-2-2.6C76.4,44.5,74.8,22,59.8,9c-6.5-5.6-14.8-8.7-23.4-8.7h-0.8
	C16,0.6,0.1,16.7,0.3,36.5S16.7,72,36.5,71.8l0,0h0.8c2.1,0,4.2-0.3,6.2-0.7c0.3,1.1,0.7,2.1,1.3,3.1l11.5,19.7
	c3.2,5.5,10.3,7.3,15.8,4.1l0.8-0.5C78.4,94.3,80.2,87.2,77,81.7z M37,61.5h-0.6c-14-0.1-25.3-11.5-25.3-25.6
	c0.1-13.7,11-24.9,24.7-25.3h0.5c14,0.1,25.3,11.5,25.3,25.6C61.7,49.9,50.7,61.1,37,61.5L37,61.5z M68.7,90.4l-0.8,0.5
	c-1.6,0.9-3.6,0.4-4.5-1.2c0,0,0,0,0,0l0,0L51.9,70c-0.3-0.5-0.4-1-0.4-1.5c2.1-1,4-2.1,5.9-3.4c0.5,0.3,0.8,0.7,1.1,1.1l11.4,19.7
	C70.8,87.5,70.3,89.5,68.7,90.4z"/>
<path class="st0" d="M47.3,20.4C44,17.7,40,16.8,36.8,18c-1.1,0.4-1.7,1.5-1.3,2.6c0.4,1.1,1.5,1.7,2.6,1.3c0.1,0,0.1,0,0.2-0.1
	c1.7-0.7,4.2,0,6.4,1.8c1.9,1.6,2.8,3.3,2.6,4.3c-0.2,1.1,0.6,2.2,1.7,2.4c0,0,0,0,0,0h0.3c1,0,1.9-0.7,2-1.8
	C51.9,25.9,50.3,22.8,47.3,20.4z"/>
</svg>
