<?xml version="1.0" encoding="utf-8"?>
<!-- Generator: Adobe Illustrator 21.0.1, SVG Export Plug-In . SVG Version: 6.00 Build 0)  -->
<svg version="1.1" id="Layer_1" xmlns="http://www.w3.org/2000/svg" xmlns:xlink="http://www.w3.org/1999/xlink" x="0px" y="0px"
	 viewBox="0 0 690 313.1" style="enable-background:new 0 0 690 313.1;" xml:space="preserve">
<style type="text/css">
	.st0{fill:#FFFFFF;}
</style>
<g>
	<g>
		<path class="st0" d="M524.3,99.5c0-0.3,0-0.6-0.1-0.8c-0.4-1-0.3-2.1-0.3-3.1c0-1.4,0-2.8,0-4.1c0-1.2,0-2.3-0.3-3.4
			c-0.1-0.4-0.1-0.9-0.1-1.3c0-0.4,0-0.8-0.1-1.2c-0.4-1.9-0.8-3.7-1.6-5.5c-0.7-1.4-1.5-2.7-2.6-3.7c-0.7-0.7-1.4-1.4-2-2.2
			c-1.6-2-3.4-3.8-5.4-5.5c-1.4-1.1-3-2-4.6-2.9c-3.3-1.8-6.8-2.6-10.4-3.2c-0.6-0.1-1.3,0-1.9-0.1c-1.1-0.3-2.3-0.3-3.4-0.3
			c-1.8,0-3.7,0-5.6,0c-0.5,0-1.1,0.1-1.6,0.1c-0.8,0.1-1.6,0.2-2.4,0.3c-1,0.1-2,0-2.9,0.2c-1.6,0.4-3.2,0.3-4.9,0.4
			c-0.5,0-1-0.1-1.5,0.1c-1.1,0.4-2.1,0.3-3.2,0.3c-1.9,0-3.8,0-5.7,0c-1,0-2.1,0.1-3.1-0.3c-0.4-0.1-0.9-0.1-1.3-0.1
			c-1,0-2,0.1-2.9-0.1c-2-0.3-4-0.6-5.9-0.9c-3.8-0.6-7.4-1.7-11-2.9c-4.1-1.3-8.2-2.9-12.1-4.8c-4.2-2-8.3-4.1-12.4-6.2
			c-0.8-0.4-1.6-0.8-2.3-1.3c-2.1-1.6-4.4-2.9-6.5-4.4c-2.7-2.1-5.5-4.1-8.2-6.3c-3.5-2.8-6.8-5.9-10-9c-0.2-0.2-0.5-0.5-0.6-0.7
			c-0.7-1.3-1.9-2.3-2.5-3.7c-0.1-0.2-0.3-0.4-0.5-0.6c-1.2-1.1-2-2.4-3-3.6c-1-1.2-1.8-2.5-2.8-3.6c-0.6-0.7-1.1-1.3-1.4-2.2
			c-0.3-1-0.8-2-1.8-2.5c-0.8-0.4-1.3-1.1-1.5-2c-0.4-1.3-1-2.4-2-3.4c-1.4-1.4-2.9-2.4-4.9-2.8c-1.1-0.2-2.1-0.3-3.2,0
			c-1,0.3-2.1,0.1-3.2,0.6c-2.3,1-4.7,2.1-6.8,3.5c-1.8,1.1-3.5,2.3-5.2,3.5c-1.5,1-2.9,2.1-4.3,3.2c-1.8,1.3-3.5,2.6-5.3,3.9
			c-2.1,1.5-4.1,3.1-6.1,4.7c-1.8,1.4-3.7,2.7-5.5,4.1c-2.5,1.9-4.9,3.8-7.4,5.7c-1.2,0.9-2.3,1.8-3.6,2.6c-2,1.4-4.1,2.7-6.2,4
			c-1.4,0.9-2.7,1.8-4.1,2.6c-3.9,2.2-7.9,4.4-11.8,6.6c-0.4,0.2-0.9,0.5-1.3,0.7c-0.7,0.3-1.3,0.4-2,0.1c-1.2-0.6-2.5-1.1-3.7-1.8
			c-4.1-2.4-8.2-4.8-12.3-7.2c-2.6-1.5-5.1-3.1-7.7-4.6c-2-1.2-4-2.3-5.9-3.5c-1.6-0.9-3.2-1.9-4.8-2.9c-3.6-2.1-7.3-4.2-10.9-6.3
			c-2.7-1.6-5.5-3.2-8.2-4.7c-0.8-0.5-1.6-1.1-2.5-1.5c-2.2-1.2-4.2-2.8-6.1-4.4c-1.8-1.4-3.4-3.1-5.2-4.5c-2.5-1.9-5.1-3.8-7.9-5.2
			c-1.7-0.9-3.6-1.2-5.5-1.3c-1-0.1-2,0.1-2.9,0.5c-1.7,0.7-3.9,2.2-3.6,4.9c0.1,0.9,0,1.9,0,2.6c-0.7,0.8-1.2,1.5-1.7,2.1
			c-0.5,0.5-0.9,1.2-1.4,1.6c-1.3,1.1-2.3,2.5-3.1,4c-0.9,1.6-1.6,3.4-2.7,4.9c-0.4,0.6-0.7,1.3-0.7,2c-0.1,1.1-0.4,2-0.7,3
			c-0.4,1-0.6,2-0.9,3c-1.4,0.4-2.4,1.3-3.3,2.3c-0.6,0.7-1,1.4-1,2.4c0,0.6,0,1.2,0,1.8c-0.2,1.9,0.4,3.4,1.4,5
			c0.6,1,1.4,1.8,2.3,2.5c3.2,2.7,6.8,4.7,10.4,6.7c2.1,1.2,4.3,2.3,6.5,3.5c0.7,0.4,1.4,0.8,2.1,1.3c1.7,1.2,3.3,2.5,4.9,3.8
			c2.3,1.9,4.7,3.6,6.9,5.5c2.7,2.3,5.5,4.4,8.3,6.7c0.2,0.2,0.3,0.4,0.6,0.6c-0.2,0.1-0.3,0.1-0.4,0.2c-1,0.3-2.2,0.3-3.2,0.5
			c-1.6,0.4-3.2,0.3-4.9,0.4c-0.6,0-1.2,0-1.8,0.1c-0.9,0.2-1.7,0.2-2.6,0.2c-13.2,0-26.4,0-39.7,0c-1.9,0-3.8-0.3-5.7,0.4
			c-0.1,0-0.1,0-0.2,0c-1.1-0.1-2,0.2-3,0.5c-3,0.9-5.4,2.5-7.2,5.1c-0.4,0.6-0.8,1.2-0.9,1.9c-0.2,1.1-0.5,2.3-0.8,3.4
			c-0.2,0.8-0.2,1.5,0,2.3c0.3,1.1,0.3,2.3-0.1,3.4c-0.2,0.7-0.4,1.4-0.5,2.1c-0.1,2-0.2,4-0.2,5.9c0,2.8-0.1,5.6,0.2,8.4
			c0.2,1.8,0.5,3.7-0.2,5.5c-0.1,0.2,0,0.4,0,0.7c-0.1,3.6,0,7.2,0.3,10.7c0,0.4,0.1,0.8,0.2,1.1c0.4,1.6,0.9,3.2,1.4,4.7
			c0.4,1.5,0.8,3,2.1,4c0.3,0.2,0.5,0.6,0.5,1c0.1,1.2,0.6,2.3,1.2,3.2c1,1.6,2.2,3.1,4.1,3.9c0.3,0.1,0.6,0.3,0.8,0.5
			c0.5,0.4,1,0.9,1.5,1.2c1.2,0.8,2.4,1.5,3.6,2.2c2.6,1.4,5.2,2.8,8,3.6c0.8,0.2,1.6,0.4,2.4,0.6c0.5,0.1,1,0.3,1.3,0.7
			c0.8,1.1,2,1.7,3.2,2.2c1.9,0.9,3.9,1.6,5.8,2.5c0.6,0.3,1.2,0.6,1.7,1c0.7,0.6,1.6,0.9,2.6,0.8c0.3,0,0.6,0,0.8,0.1
			c1.3,0.4,2.5,0.2,3.7-0.3c1,1.6,2.6,2.3,4.3,2.7c1.9,0.5,3.8,1,5.6,1.6c1.8,0.6,3.7,1,5.6,1c1.2,0,2.3-0.2,3.1-1.1
			c0.4-0.4,0.8-0.4,1.3,0c0.1,0.1,0.3,0.2,0.4,0.3c0.8,0.8,1.8,1.1,3,1.1c3.4,0,6.7,0,10.1,0c1.2,0,2.4,0,3.5-0.6
			c0.6-0.3,1.3-0.4,1.8,0.2c0.9,0.8,1.9,1,3,1h12.2c1.1,0,2.1-0.2,3-1c0.7-0.6,1-0.6,1.9,0c0.9,0.7,1.8,0.9,2.9,0.9
			c1.3,0,2.5,0,3.8,0c1.2,0,2.4,0,3.5-0.4c0.3-0.1,0.7-0.1,1.1-0.1c0.5,0,1.1,0,1.6,0c1.8-0.2,3.5-0.7,4.6-2.5
			c0.1-0.1,0.2-0.2,0.3-0.3c0.6-0.2,1.2-0.3,1.7-0.5c0.6-0.3,1.2-0.4,1.9-0.4c0.9,0,1.8-0.2,2.7-0.5c0.5-0.2,1.1-0.2,1.6-0.3
			c0.4-0.1,0.9-0.1,1.3-0.2c2.3-0.4,4.5-1.1,6.9-1.1c0.3,0,0.5-0.1,0.8-0.2c0.6-0.1,1.3-0.2,1.9-0.3c0.5,0,1,0,1.5-0.1
			c1-0.3,2.1-0.2,3.1-0.2c1.4,0,2.8-0.1,4.2-0.4c0.4-0.1,0.9-0.1,1.3-0.1c6.6,0,13.2,0,19.8,0c0.4,0,0.9,0,1.3,0.1
			c1.3,0.4,2.7,0.4,4,0.4c1.6,0,3.2-0.1,4.7,0.3c0.3,0.1,0.7,0.1,1,0c1.1-0.1,2,0.2,2.9,0.8c0.3,0.2,0.5,0.4,0.8,0.5
			c1.8,1,3.7,1.8,5.9,1.7c0.4,0,0.9,0,1.2,0.3c1.4,0.9,2.9,1.2,4.5,1.5c1,0.1,1.9,0.3,2.9,0.5c0.9,0.2,1.8,0.4,2.7,0.3
			c0.9,0,1.8,0,2.8,0c1,0,1.9,0.2,2.9,0.4c1.5,0.4,3,0.6,4.5,0.9c0.4,0.1,0.8,0,1.1,0c0.4,0,0.9-0.1,1.3,0c1.7,0.4,3.4,0.3,5,0.3
			c0.5,0,1.1,0.1,1.6,0.2c2.5,0.4,5,0.7,7.2-1c0,0,0.1,0,0.2,0c1.4,1.1,1.4,1.1,3.5,1.3c0.3,0,0.6,0.1,1,0.2
			c0.5,0.1,1.1,0.2,1.6,0.2c3,0,6.1,0,9.1,0c0.9,0,1.8-0.2,2.6-0.8c0.2-0.2,0.5-0.2,0.7-0.4c0.3,0.3,0.7,0.5,0.9,0.7
			c0.7,0.6,1.5,0.9,2.4,0.9c1.6,0,3.3,0.1,4.9,0.4c0.1,0,0.1,0,0.2,0c2.2,0,4.5,0,6.7,0c1,0,1.9-0.3,2.7-0.9
			c0.2-0.2,0.5-0.3,0.7-0.4c0.7,0.4,1.2,0.9,1.8,1.1c1,0.3,2,0.6,3,0.6c2.4,0.1,4.9,0.1,7.3,0c1.3-0.1,2.6-0.3,3.9-0.3
			c0.3,0,0.7-0.1,0.9-0.2c0.9-0.5,1.7-0.4,2.6,0c0.3,0.2,0.7,0.2,1.1,0.4c0.8,0.3,1.6,0.3,2.4,0.2c0.7-0.1,1.5-0.2,2.3-0.2
			c2,0,3.9,0,5.9,0c1.5,0,3-0.4,4.4-1.1c0.4-0.2,0.8-0.2,1.2-0.2c2.5,0,5.1,0.4,7.6-0.3c0.1,0,0.1,0,0.2,0c1.8,0,3.4-0.4,5.1-0.9
			c1-0.3,1.9-0.6,2.6-1.2c0.8-0.6,1.7-0.9,2.7-0.9c1.8,0,3.5-0.4,5.2-1.2c1.1-0.5,2.3-1,3.5-1.3c1.6-0.3,2.9-1.2,4.1-2.1
			c0.4-0.3,0.8-0.6,1.3-0.5c0.8,0,1.6-0.1,2.3-0.6c0.3-0.2,0.7-0.2,1.1-0.2c1.1,0,2.1-0.4,2.9-1.2c1.2-1.3,2.7-2.1,4.4-2.6
			c1-0.3,1.9-0.7,2.6-1.6c1-1.1,2.1-2.1,3.2-3c0.9-0.8,1.8-1.6,2.5-2.6c0.7-1.1,1.5-2,2.4-2.9c1.2-1.2,2.1-2.6,2.7-4.3
			c0.3-0.7,0.5-1.5,1-2.1c1.6-2.3,2.5-5,3.6-7.6c0.6-1.4,0.8-2.9,1.2-4.3c0.6-1.9,0.2-3.8,0.5-5.7c0-0.2-0.1-0.3-0.1-0.5
			c0-1.3-0.2-2.7-0.1-4c0.1-1.3,0.2-2.6,0.2-4c0.1-2-0.4-3.9-1.5-5.6C524.5,100.6,524.3,100.1,524.3,99.5z M391.8,39.5
			c-2.5-2.7-3.8-5.6-2.9-6.5c0.9-0.9,3.8,0.5,6.3,3.2c2.5,2.7,3.8,5.6,2.9,6.5C397.1,43.6,394.3,42.2,391.8,39.5z M405.2,69.2
			c-1.3,1.7-4.8,1.2-7.7-1.2c-2.9-2.3-4.3-5.6-3-7.3c1.3-1.7,4.8-1.2,7.7,1.2C405.1,64.3,406.5,67.5,405.2,69.2z M430.1,62.4
			c-0.5,1.1-3.7,0.6-7.1-1.1c-3.4-1.7-5.8-3.9-5.3-5c0.5-1.1,3.7-0.6,7.1,1.1C428.2,59.1,430.6,61.3,430.1,62.4z M450.6,77.8
			c-0.2,1.9-3.4,3.1-7.2,2.7c-3.8-0.4-6.6-2.2-6.4-4.1c0.2-1.9,3.4-3.1,7.2-2.7C447.9,74.1,450.8,76,450.6,77.8z M463.2,68.2
			c-3.7-0.1-6.7-1-6.7-1.9c0-0.9,3.1-1.6,6.8-1.4c3.7,0.1,6.7,1,6.7,1.9C469.9,67.7,466.9,68.3,463.2,68.2z M483.8,76.2
			c-3.7,0.3-6.7-0.4-6.8-1.7c-0.1-1.3,2.7-2.6,6.4-2.9c3.7-0.3,6.7,0.4,6.8,1.7C490.4,74.5,487.5,75.8,483.8,76.2z M505.9,146.4
			c0-0.1-0.1-0.1-0.1-0.2c0,0,0.1,0,0.1,0C505.9,146.2,506,146.2,505.9,146.4C506,146.3,505.9,146.3,505.9,146.4z M284.5,254.8
			c5.5,0,10.8,2.9,13.7,7l0.2,0.3l0.3,0.5l0,0c2,2.4,4.9,4,8.3,4c5.9,0,10.6-4.8,10.6-10.8c0-2.8-1.1-5.3-2.8-7.2
			c-7.3-9.1-16-14.3-30.4-14.3c-22.8,0-40,16-40,38.4c0,22.7,17.2,38.7,40,38.7c14.6,0,23.2-5.2,30.4-13.4l0,0
			c1.6-1.9,2.6-4.3,2.6-7c0-5.8-4.7-10.5-10.4-10.5c-3.1,0-5.9,1.4-7.8,3.6c-3.4,3.5-7.4,6.9-14.7,6.9c-10.5,0-16.3-7.6-16.3-18.4
			C268.2,262.2,274.1,254.8,284.5,254.8z M192.1,234.3c-22.7,0-40.3,16.1-40.3,38.7c0,22.4,17.7,38.4,40.3,38.4
			c22.6,0,40.1-16,40.1-38.4C232.3,250.4,214.8,234.3,192.1,234.3z M192.1,291.6c-10.3,0-16.7-7.6-16.7-18.6
			c0-11.1,6.4-18.6,16.7-18.6c10.3,0,16.5,7.5,16.5,18.6C208.6,283.9,202.4,291.6,192.1,291.6z M140.3,239
			c-3.6-1.9-6.1-2.3-11.4-1.8c-9.6,0.8-17,7.6-18.3,9.3v0.5l0-0.5h0v0c-0.5-6.2-5.5-11.1-11.8-11.1c-6.4,0-11.7,5.2-11.8,11.7v52.4
			c0.2,6.5,5.4,11.6,11.8,11.6c6.5,0,11.7-5.2,11.9-11.8V285c0-19.4,11.1-24.3,17.3-24.5c1.6,0,5.9,1.6,9.2,1
			c6.5-1.2,10.7-7.5,9.5-14C145.9,243.7,143.5,240.7,140.3,239z M41.6,254.8c5.5,0,10.8,2.9,13.7,7l0.2,0.3l0.4,0.5v0
			c1.9,2.4,4.9,4,8.3,4c5.9,0,10.6-4.8,10.6-10.8c0-2.8-1.1-5.3-2.8-7.2c-7.3-9.1-16-14.3-30.4-14.3c-22.8,0-40,16-40,38.4
			c0,22.7,17.2,38.7,40,38.7c14.6,0,23.2-5.2,30.4-13.4l0,0c1.6-1.9,2.6-4.3,2.6-7c0-5.8-4.6-10.5-10.4-10.5c-3.1,0-6,1.4-7.9,3.6
			c-3.4,3.5-7.4,6.9-14.7,6.9c-10.5,0-16.3-7.6-16.3-18.4C25.3,262.2,31.1,254.8,41.6,254.8z M365.7,263.6c-9.9-2.3-14.6-2.8-14.6-7
			c0-2.9,2.6-4.3,7.9-4.3c5.5,0,10.6,2.6,14.1,5.6l0,0c1.6,1.5,3.8,2.5,6.2,2.5c5,0,9.1-4.1,9.1-9.2c0-2.7-1.2-5.1-3-6.8
			c-6-6.2-14.5-10.1-26.5-10.1c-15.6,0-28.3,6.8-28.3,23.4c0,15.5,11.2,21,21.1,23.6c11.8,3.1,16.5,3.1,16.5,7.1
			c0,3.1-2.4,4.5-10,4.5c-5.9,0-11.4-2.2-16-5.9l0.2,0.2c-3.7-3.4-9.4-3.2-12.9,0.4c-2.8,3-3.3,7.4-1.5,10.8l0.2,0.4
			c0.2,0.3,0.3,0.6,0.5,0.8c0.1,0.2,0.3,0.4,0.5,0.6c0.2,0.2,0.3,0.4,0.5,0.6l0.5,0.4c6.4,5.8,15.6,10.1,29.5,10.1
			c23,0,30-11.1,30-24.7C389.7,271.1,376.4,266.1,365.7,263.6z M484.6,292.8c-1.4,0-2.4,0.7-3.1,1.4c-5.4,5.2-12,9-20.4,9
			c-15.3,0-26.9-12.7-26.9-28.8v-0.3c0-15.9,11.3-28.6,26.2-28.6c8.8,0,14.7,4,19.9,8.9c0.8,0.7,2.1,1.3,3.5,1.3
			c2.8,0,5.2-2.3,5.2-5.3c0-1.7-0.8-3.2-1.7-3.9c-6.5-6-14.7-10.7-26.9-10.7c-21.3,0-37.5,17.8-37.5,38.7v0.3
			c0,20.7,16.1,38.3,37.5,38.3c12.3,0,20.6-4.9,27.6-11.9c0.9-0.9,1.4-2.1,1.4-3.4C489.5,295.2,487.3,292.8,484.6,292.8z
			 M507.6,206.2c-3,0-5.4,2.6-5.4,5.6v94.7c0,3.2,2.4,5.6,5.5,5.6c3.1,0,5.4-2.4,5.4-5.6v-94.7C513.2,208.8,510.7,206.2,507.6,206.2
			z M588.6,236.7c-3.1,0-5.4,2.4-5.4,5.6v37.5c0,13.9-9.5,23.2-21.9,23.2c-12.9,0-20.2-8.6-20.2-22.3v-38.3c0-3.1-2.5-5.6-5.5-5.6
			c-3.1,0-5.4,2.4-5.4,5.6v41.1c0,17.6,10.3,29.6,28,29.6c12.6,0,20.1-6.4,25-14.5v8c0,3.2,2.4,5.6,5.4,5.6c3.1,0,5.4-2.6,5.4-5.6
			v-64.3C594,239.1,591.6,236.7,588.6,236.7z M650.3,235.8c-13.4,0-22.1,7.6-28,16.5v-40.5c0-3.1-2.4-5.6-5.5-5.6
			c-3,0-5.4,2.4-5.4,5.6v94.7c0,3,2.4,5.6,5.5,5.6c3.1,0,5.4-2.6,5.4-5.6v-9.3c5.7,8.3,14.4,15.8,28,15.8
			c17.7,0,34.9-14.3,34.9-38.5v-0.3C685.2,249.8,667.8,235.8,650.3,235.8z M674,274.6c0,17.9-11.6,28.5-25.7,28.5
			c-13.6,0-26.4-11.5-26.4-28.6v-0.3c0-16.9,12.9-28.5,26.4-28.5c13.8,0,25.7,11.2,25.7,28.6V274.6z"/>
	</g>
</g>
</svg>
