<?xml version="1.0" encoding="utf-8"?>
<!-- Generator: Adobe Illustrator 21.0.0, SVG Export Plug-In . SVG Version: 6.00 Build 0)  -->
<svg version="1.1" id="Layer_1" xmlns="http://www.w3.org/2000/svg" xmlns:xlink="http://www.w3.org/1999/xlink" x="0px" y="0px"
	 viewBox="0 0 296 89" style="enable-background:new 0 0 296 89;" xml:space="preserve">
<style type="text/css">
	.st0{fill:#464342;}
</style>
<g>
	<g>
		<path class="st0" d="M38.9,76.7c0-4.7,3.6-7.9,8.3-7.9c4.1,0,6.2,2.3,7.1,4.5l-4,1.9c-0.4-1.2-1.6-2.2-3.1-2.2
			c-2.1,0-3.6,1.7-3.6,3.8c0,2.1,1.5,3.8,3.6,3.8c1.5,0,2.7-1,3.1-2.2l4,1.8c-0.9,2-2.9,4.5-7.1,4.5C42.5,84.6,38.9,81.4,38.9,76.7z
			"/>
		<path class="st0" d="M63.8,68.8c4.7,0,8.4,3.2,8.4,7.9c0,4.7-3.7,7.9-8.4,7.9s-8.4-3.2-8.4-7.9C55.4,72,59.1,68.8,63.8,68.8z
			 M63.8,72.9c-2.2,0-3.7,1.7-3.7,3.8c0,2.1,1.4,3.8,3.7,3.8c2.2,0,3.7-1.7,3.7-3.8C67.5,74.6,66,72.9,63.8,72.9z"/>
		<path class="st0" d="M87.4,74.7L84,84.4h-2.1l-3.4-9.7v9.7h-4.6V69h6.4l2.7,7.8l2.7-7.8h6.4v15.3h-4.6V74.7z"/>
		<path class="st0" d="M94.1,69h11.6v3.9h-7v1.8h6.8v3.9h-6.8v2h7v3.9H94.1V69z"/>
		<path class="st0" d="M123.6,82.4h-5.9l-0.6,2h-5l5.7-15.3h5.8l5.7,15.3h-5L123.6,82.4z M118.9,78.5h3.5l-1.7-5.4L118.9,78.5z"/>
		<path class="st0" d="M132.2,78.7c1.2,1.1,2.9,2,4.9,2c0.9,0,1.7-0.3,1.7-0.9c0-0.6-0.6-0.9-2.2-1.2c-2.5-0.5-6.4-1.1-6.4-4.9
			c0-2.6,2.2-5,6.4-5c2.5,0,4.8,0.7,6.5,2.1l-2.5,3.3c-1.3-1-3.1-1.5-4.3-1.5c-1.2,0-1.4,0.4-1.4,0.8c0,0.6,0.6,0.8,2.3,1.1
			c2.5,0.4,6.3,1.2,6.3,4.7c0,3.4-2.5,5.3-6.6,5.3c-3.3,0-5.5-1-7.1-2.4L132.2,78.7z"/>
		<path class="st0" d="M155,78.3l-5.8-9.2h5.2l2.9,5.2l2.8-5.2h5.2l-5.7,9.2v6.1H155V78.3z"/>
		<path class="st0" d="M172.4,68.8c4.7,0,8.4,3.2,8.4,7.9c0,4.7-3.7,7.9-8.4,7.9s-8.4-3.2-8.4-7.9C164,72,167.7,68.8,172.4,68.8z
			 M172.4,72.9c-2.2,0-3.7,1.7-3.7,3.8c0,2.1,1.4,3.8,3.7,3.8s3.7-1.7,3.7-3.8C176.1,74.6,174.6,72.9,172.4,72.9z"/>
		<path class="st0" d="M182.5,69h4.7v8.9c0,1.5,0.8,2.6,2.7,2.6c1.9,0,2.6-1.2,2.6-2.6V69h4.7v9c0,3.8-2.2,6.6-7.4,6.6
			s-7.4-2.8-7.4-6.6V69z"/>
		<path class="st0" d="M215.4,82.4h-5.9l-0.6,2h-5l5.7-15.3h5.8l5.7,15.3h-5L215.4,82.4z M210.7,78.5h3.5l-1.7-5.4L210.7,78.5z"/>
		<path class="st0" d="M228.7,79.4H227v4.9h-4.6V69h8.2c3.6,0,5.5,2.4,5.5,5.3c0,2.6-1.5,4-2.8,4.6l2.8,5.4h-5.3L228.7,79.4z
			 M229.9,72.9H227v2.7h2.8c0.8,0,1.5-0.5,1.5-1.4C231.4,73.4,230.6,72.9,229.9,72.9z"/>
		<path class="st0" d="M237.5,69h11.6v3.9h-7v1.8h6.8v3.9h-6.8v2h7v3.9h-11.6V69z"/>
	</g>
	<g>
		<path class="st0" d="M254.1,70.1v4.2h-1.3v-4.2h-1.5v-1h4.3v1H254.1z M261.1,74.3v-3.7h0l-1.3,3.7h-0.9l-1.3-3.7h0v3.7h-1.2v-5.2
			h1.7l1.3,3.4l1.3-3.4h1.7v5.2H261.1z"/>
	</g>
</g>
<g>
	<path class="st0" d="M205,19.1c3.8,0,7.4,2,9.4,4.8c0.1,0.1,0.1,0.1,0.2,0.2c0.1,0.1,0.2,0.2,0.2,0.3l0,0c1.3,1.7,3.4,2.7,5.7,2.7
		c4,0,7.3-3.3,7.3-7.3c0-1.9-0.7-3.6-1.9-4.9c-5-6.2-11-9.8-20.9-9.8c-15.7,0-27.6,10.9-27.6,26.2c0,15.5,11.8,26.4,27.6,26.4
		c10.1,0,16-3.5,21-9.1l0,0c1.1-1.3,1.8-2.9,1.8-4.7c0-4-3.2-7.2-7.2-7.2c-2.2,0-4.1,1-5.4,2.5c-2.4,2.4-5.1,4.7-10.2,4.7
		c-7.2,0-11.3-5.2-11.3-12.6C193.8,24.2,197.8,19.1,205,19.1 M261.1,25.1c-6.9-1.5-10.1-1.9-10.1-4.7c0-2,1.8-3,5.4-3
		c3.8,0,7.3,1.8,9.7,3.8l0,0c1.1,1.1,2.6,1.7,4.3,1.7c3.5,0,6.3-2.8,6.3-6.3c0-1.8-0.8-3.5-2.1-4.6c-4.1-4.2-10-6.9-18.3-6.9
		c-10.8,0-19.5,4.6-19.5,16c0,10.5,7.7,14.3,14.6,16.1c8.2,2.1,11.4,2.1,11.4,4.9c0,2.1-1.7,3.1-6.9,3.1c-4.1,0-7.9-1.5-11.1-4
		l0.1,0.1c0,0,0,0,0,0c-2.5-2.3-6.5-2.2-8.9,0.3c-2,2-2.3,5-1,7.4c0,0.1,0.1,0.2,0.1,0.2c0.1,0.2,0.2,0.4,0.4,0.6
		c0.1,0.1,0.2,0.3,0.3,0.4c0.1,0.1,0.2,0.3,0.4,0.4c0.1,0.1,0.2,0.2,0.3,0.3c4.4,3.9,10.7,6.9,20.4,6.9c15.9,0,20.7-7.6,20.7-16.8
		C277.6,30.2,268.4,26.8,261.1,25.1 M37.4,19.1c3.8,0,7.4,2,9.4,4.8c0.1,0.1,0.1,0.1,0.2,0.2c0.1,0.1,0.2,0.2,0.2,0.3l0,0
		c1.3,1.7,3.4,2.7,5.7,2.7c4,0,7.3-3.3,7.3-7.3c0-1.9-0.7-3.6-1.9-4.9c-5-6.2-11-9.8-21-9.8C21.6,5.1,9.8,16,9.8,31.3
		c0,15.5,11.8,26.4,27.6,26.4c10.1,0,16-3.5,21-9.1l0,0c1.1-1.3,1.8-2.9,1.8-4.7c0-4-3.2-7.2-7.2-7.2c-2.2,0-4.1,1-5.4,2.5
		c-2.4,2.4-5.1,4.7-10.1,4.7c-7.2,0-11.3-5.2-11.3-12.6C26.1,24.2,30.1,19.1,37.4,19.1 M141.3,44.2c-7.1,0-11.5-5.2-11.5-12.7
		c0-7.6,4.4-12.7,11.5-12.7c7.1,0,11.4,5.1,11.4,12.7C152.6,39,148.4,44.2,141.3,44.2 M141.3,5.1c-15.6,0-27.8,11-27.8,26.4
		c0,15.3,12.2,26.2,27.8,26.2c15.6,0,27.7-10.9,27.7-26.2C169,16.1,156.9,5.1,141.3,5.1 M105.5,8.4c-2.5-1.3-4.2-1.6-7.9-1.3
		c-6.6,0.6-11.7,5.2-12.6,6.3v0.3c0-0.1,0-0.2,0-0.3h0v0c-0.3-4.2-3.8-7.6-8.1-7.6c-4.5,0-8.1,3.6-8.2,8v35.7
		c0.1,4.4,3.7,7.9,8.2,7.9c4.5,0,8.1-3.6,8.2-8v-9.7c0-13.2,7.7-16.6,12-16.7c1.1,0,4,1.1,6.3,0.7c4.5-0.8,7.4-5.1,6.6-9.5
		C109.4,11.6,107.7,9.5,105.5,8.4"/>
	<g>
		<path class="st0" d="M281.2,7.8V13h-1.6V7.8h-1.9V6.5h5.3v1.3H281.2z M289.9,13V8.4h0l-1.7,4.6h-1.1l-1.7-4.6h0V13h-1.5V6.5h2.2
			l1.6,4.3l1.6-4.3h2.1V13H289.9z"/>
	</g>
</g>
</svg>
